<svg width="18" height="18" viewBox="0 0 18 18" fill="none" xmlns="http://www.w3.org/2000/svg">
<path d="M15.7005 6.95189L16.9786 14.9519C17.019 15.2051 17.0021 15.4637 16.9291 15.7101C16.8561 15.9564 16.7287 16.1846 16.5556 16.3791C16.3826 16.5736 16.1679 16.7298 15.9263 16.8369C15.6847 16.9441 15.422 16.9997 15.156 16.9999H2.84583C2.57972 16.9999 2.31675 16.9445 2.07496 16.8375C1.83316 16.7305 1.61825 16.5743 1.44496 16.3798C1.27167 16.1853 1.14411 15.957 1.071 15.7105C0.997903 15.464 0.980997 15.2052 1.02145 14.9519L2.29953 6.95189C2.36657 6.53197 2.58752 6.14906 2.92235 5.87252C3.25719 5.59597 3.68377 5.44407 4.12483 5.44434H13.877C14.3179 5.44429 14.7443 5.59628 15.0789 5.87281C15.4136 6.14933 15.6344 6.53212 15.7014 6.95189H15.7005Z" stroke="white" stroke-width="1.5" stroke-linecap="round" stroke-linejoin="round"/>
<path d="M10.8464 2.77778C10.8464 2.30628 10.652 1.8541 10.3059 1.5207C9.95976 1.1873 9.49033 1 9.00085 1C8.51138 1 8.04195 1.1873 7.69583 1.5207C7.34972 1.8541 7.15527 2.30628 7.15527 2.77778" stroke="white" stroke-width="1.5" stroke-linecap="round" stroke-linejoin="round"/>
<path d="M8.99353 11.6667V14.3333M6.2251 11.6667H8.99353H6.2251ZM11.762 11.6667H8.99353H11.762ZM8.99353 11.6667V9V11.6667Z" stroke="white" stroke-width="1.5" stroke-linecap="round" stroke-linejoin="round"/>
</svg>
