<svg width="19" height="18" viewBox="0 0 19 18" fill="none" xmlns="http://www.w3.org/2000/svg">
<path d="M4.73304 17.417H0.82782V5.66614H4.73304V17.417Z" fill="white"/>
<path d="M2.7765 4.06017H2.75145C1.44058 4.06017 0.593018 3.15626 0.593018 2.0293C0.593018 0.877304 1.46641 0 2.80154 0C4.13745 0 4.96076 0.876522 4.98502 2.0293C4.98502 3.15783 4.13745 4.06017 2.7765 4.06017Z" fill="white"/>
<path d="M18.8145 17.4115H14.9093V11.1241C14.9093 9.54475 14.3442 8.46788 12.9293 8.46788C11.8516 8.46788 11.2091 9.19414 10.9266 9.89692C10.824 10.1474 10.7974 10.4987 10.7974 10.8494V17.4115H6.89301C6.89301 17.4115 6.94466 6.76414 6.89301 5.66066H10.7982V7.32527C11.3171 6.52466 12.246 5.3844 14.3192 5.3844C16.8885 5.3844 18.8145 7.06466 18.8145 10.6733V17.4115Z" fill="white"/>
</svg>
