<svg width="27" height="18" viewBox="0 0 27 18" fill="none" xmlns="http://www.w3.org/2000/svg">
<path d="M23.9267 2.40885C23.8359 2.56068 23.3703 3.09363 22.8725 3.58041C22.0289 4.41781 21.9835 4.50859 21.9835 5.20902C21.9835 6.28902 21.4724 8.54294 20.9606 9.77476C20.0113 12.0889 17.9789 14.479 15.9457 15.6835C13.0852 17.3723 9.27548 17.7996 6.06757 16.8096C4.99931 16.4731 3.16174 15.6208 3.16174 15.4698C3.16174 15.4228 3.71818 15.3634 4.39748 15.3469C5.81587 15.3171 7.20378 14.9298 8.43261 14.2208L9.24496 13.7332L8.31131 13.4139C6.98557 12.9568 5.79679 11.9066 5.49548 10.9174C5.4047 10.5973 5.43522 10.5816 6.27809 10.5816L7.14992 10.5668L6.4127 10.2162C5.53853 9.77398 4.74026 9.02972 4.34974 8.26746C4.06409 7.71963 3.70253 6.33441 3.8074 6.22798C3.8387 6.18259 4.15487 6.27494 4.51487 6.39624C5.5534 6.77737 5.68879 6.68581 5.08696 6.04563C3.95844 4.88815 3.61174 3.16876 4.15331 1.53937L4.40922 0.809198L5.40313 1.79842C7.43713 3.7925 9.83113 4.9805 12.5703 5.32955L13.3231 5.42033L13.2777 4.67372C13.1424 2.74068 14.3319 0.974328 16.2141 0.289546C16.9067 0.0453717 18.0822 0.0156326 18.8499 0.227719C19.1512 0.318502 19.7225 0.623719 20.1295 0.897632L20.8675 1.40007L21.6798 1.14024C22.1322 1.00407 22.734 0.774763 23.0048 0.622937C23.2607 0.485198 23.4861 0.409285 23.4861 0.454676C23.4861 0.712937 22.9289 1.59728 22.4632 2.08407C21.8293 2.76885 22.0109 2.82989 23.2904 2.37363C24.0613 2.11928 24.077 2.11928 23.9267 2.40885Z" fill="white"/>
</svg>
