<svg width="21" height="21" viewBox="0 0 21 21" fill="none" xmlns="http://www.w3.org/2000/svg">
<path d="M18.3015 5.73466C18.3015 5.81799 18.2851 5.9005 18.2532 5.97748C18.2213 6.05446 18.1745 6.12439 18.1155 6.18327C18.0566 6.24216 17.9866 6.28885 17.9096 6.32066C17.8325 6.35248 17.75 6.3688 17.6667 6.36869H15.1321C14.964 6.36869 14.8027 6.30189 14.6838 6.18299C14.5649 6.06408 14.4981 5.90281 14.4981 5.73466V3.20012C14.4981 2.84958 14.7816 2.56608 15.1321 2.56608H17.6667C18.0172 2.56608 18.3007 2.84958 18.3007 3.20012L18.3015 5.73466ZM18.3015 17.1417C18.3015 17.5859 18.1117 17.7757 17.6667 17.7757H3.7259C3.28167 17.7757 3.09186 17.5859 3.09186 17.1417V8.27L4.6709 8.61408C4.49757 9.17745 4.40963 9.76361 4.41002 10.353C4.41002 13.7227 7.2321 16.4592 10.71 16.4592C14.1912 16.4592 17.0116 13.7243 17.0116 10.353C17.0116 9.74727 16.9204 9.16573 16.7507 8.61408L18.2999 8.27V17.1417H18.3015ZM10.7108 6.18858C12.9594 6.18858 14.7816 7.955 14.7816 10.1333C14.7816 12.3117 12.9594 14.0781 10.7108 14.0781C8.46302 14.0781 6.64006 12.3101 6.64006 10.1333C6.64006 7.95339 8.46302 6.18858 10.7108 6.18858ZM18.3007 0.0323486H3.09267C1.65983 0.0323486 0.556519 1.13566 0.556519 2.56769V17.7757C0.556519 19.207 1.65983 20.3103 3.09186 20.3103H18.2999C19.7311 20.3103 20.8344 19.207 20.8344 17.7757V2.56689C20.8361 1.13485 19.7311 0.0323486 18.3015 0.0323486H18.3007Z" fill="white"/>
</svg>
