<svg width="282" height="73" viewBox="0 0 282 73" fill="none" xmlns="http://www.w3.org/2000/svg">
<path d="M37.4 0.935995V11.592H12.056L11.672 36.84L29.432 37.128L29.24 47.88L11.576 47.592L11.192 69.96L0.536 69.768L1.496 6.216V0.935995H37.4ZM61.4015 16.68C59.4815 16.744 57.7535 17.928 56.2175 20.232C54.6815 22.536 53.4335 25.48 52.4735 29.064C51.6415 32.392 51.1935 35.944 51.1295 39.72C51.1295 43.304 51.5455 46.6 52.3775 49.608C53.9135 54.792 56.2495 57.416 59.3855 57.48C60.0255 57.48 60.6655 57.288 61.3055 56.904C61.9455 56.52 62.5215 56.008 63.0335 55.368C63.6095 54.664 64.1215 53.832 64.5695 52.872C65.0815 51.848 65.5295 50.76 65.9135 49.608C66.2975 48.456 66.6495 47.208 66.9695 45.864C67.8015 42.408 68.2175 38.696 68.2175 34.728C68.2175 30.76 67.8015 27.24 66.9695 24.168C65.6255 19.048 63.7695 16.552 61.4015 16.68ZM42.1055 26.376C43.6415 20.552 46.0095 15.752 49.2095 11.976C52.4095 8.2 56.2815 6.184 60.8255 5.928C64.9855 5.736 68.4415 7.048 71.1935 9.86399C74.0095 12.616 76.0575 16.456 77.3375 21.384C78.4255 25.352 78.9695 29.8 78.9695 34.728C78.9695 39.464 78.4255 44.008 77.3375 48.36C75.9295 54.376 73.6575 59.208 70.5215 62.856C67.3855 66.504 63.5775 68.264 59.0975 68.136C54.8095 68.008 51.2255 66.568 48.3455 63.816C45.5295 61 43.4495 57.256 42.1055 52.584C40.9535 48.744 40.4095 44.424 40.4735 39.624C40.5375 34.952 41.0815 30.536 42.1055 26.376ZM102.933 16.68C101.013 16.744 99.2848 17.928 97.7488 20.232C96.2128 22.536 94.9648 25.48 94.0048 29.064C93.1728 32.392 92.7248 35.944 92.6608 39.72C92.6608 43.304 93.0768 46.6 93.9088 49.608C95.4448 54.792 97.7808 57.416 100.917 57.48C101.557 57.48 102.197 57.288 102.837 56.904C103.477 56.52 104.053 56.008 104.565 55.368C105.141 54.664 105.653 53.832 106.101 52.872C106.613 51.848 107.061 50.76 107.445 49.608C107.829 48.456 108.181 47.208 108.501 45.864C109.333 42.408 109.749 38.696 109.749 34.728C109.749 30.76 109.333 27.24 108.501 24.168C107.157 19.048 105.301 16.552 102.933 16.68ZM83.6367 26.376C85.1728 20.552 87.5408 15.752 90.7408 11.976C93.9408 8.2 97.8128 6.184 102.357 5.928C106.517 5.736 109.973 7.048 112.725 9.86399C115.541 12.616 117.589 16.456 118.869 21.384C119.957 25.352 120.501 29.8 120.501 34.728C120.501 39.464 119.957 44.008 118.869 48.36C117.461 54.376 115.189 59.208 112.053 62.856C108.917 66.504 105.109 68.264 100.629 68.136C96.3408 68.008 92.7568 66.568 89.8768 63.816C87.0608 61 84.9808 57.256 83.6367 52.584C82.4848 48.744 81.9408 44.424 82.0048 39.624C82.0688 34.952 82.6128 30.536 83.6367 26.376ZM134.288 16.104L134.672 56.808C137.296 54.888 139.824 51.464 142.256 46.536C144.368 42.12 145.648 37.64 146.096 33.096C146.544 28.488 146.032 24.744 144.56 21.864C142.768 18.408 139.344 16.488 134.288 16.104ZM124.112 67.656L124.016 63.336L123.632 10.92L123.536 6.024L128.432 5.544C140.912 4.328 149.456 8.136 154.064 16.968C156.496 21.704 157.392 27.432 156.752 34.152C156.176 39.912 154.544 45.608 151.856 51.24C149.04 57.064 145.52 61.64 141.296 64.968C137.072 68.232 132.752 69.416 128.336 68.52L124.112 67.656Z" fill="white"/>
<path d="M186.883 5.16L197.635 4.96799L198.691 68.904L187.939 69.096L187.747 56.808L171.139 56.52L170.755 69.192L160.099 68.904L161.923 4.96799L172.674 5.256L171.427 45.864L187.555 46.152L186.883 5.16ZM202.3 10.824L212.956 10.536C213.02 11.432 212.956 13.512 212.764 16.776C212.7 19.08 212.636 20.904 212.572 22.248C212.508 23.528 212.444 25.544 212.38 28.296C212.316 30.984 212.316 33.256 212.38 35.112C212.508 36.904 212.636 39.048 212.764 41.544C212.892 44.04 213.148 46.152 213.532 47.88C213.916 49.544 214.364 51.208 214.876 52.872C215.452 54.536 216.156 55.848 216.988 56.808C217.884 57.704 218.876 58.248 219.964 58.44C225.532 59.528 229.276 55.272 231.196 45.672C232.604 38.568 232.988 27.4 232.348 12.168C232.156 8.584 232.092 6.088 232.156 4.68L242.812 4.96799C242.812 5.608 242.876 7.848 243.004 11.688C243.772 27.816 243.356 39.848 241.756 47.784C238.428 64.424 230.46 71.496 217.852 69C216.124 68.616 214.524 67.976 213.052 67.08C211.58 66.184 210.3 65 209.212 63.528C208.188 62.056 207.228 60.552 206.332 59.016C205.5 57.416 204.828 55.496 204.316 53.256C203.804 51.016 203.356 48.968 202.972 47.112C202.588 45.192 202.3 42.952 202.108 40.392C201.98 37.832 201.852 35.656 201.724 33.864C201.66 32.072 201.66 29.896 201.724 27.336C201.788 24.776 201.82 22.824 201.82 21.48C201.884 20.136 201.98 18.408 202.108 16.296C202.236 13.096 202.3 11.272 202.3 10.824ZM272.84 31.656C275.208 33.448 277.128 35.528 278.6 37.896C280.584 41.288 281.544 44.936 281.48 48.84C281.416 52.808 280.232 56.36 277.928 59.496C275.496 62.952 272.008 65.544 267.464 67.272C262.92 69 257.544 69.48 251.336 68.712L246.536 68.136V63.336L246.824 11.112V6.696L251.144 5.832C257.096 4.936 261.928 4.936 265.64 5.832C269.416 6.664 272.424 8.264 274.664 10.632C277.032 13.064 278.312 15.944 278.504 19.272C278.696 22.408 277.864 25.352 276.008 28.104C275.176 29.384 274.12 30.568 272.84 31.656ZM269.384 43.464C267.144 39.752 263.144 37.544 257.384 36.84L257.288 58.344C262.984 58.216 266.952 56.52 269.192 53.256C270.216 51.848 270.76 50.28 270.824 48.552C270.888 46.824 270.408 45.128 269.384 43.464ZM257.48 15.816L257.384 25.8C262.12 25.992 265.352 24.808 267.08 22.248C267.592 21.416 267.848 20.616 267.848 19.848C267.784 19.144 267.496 18.536 266.984 18.024C265.192 16.232 262.024 15.496 257.48 15.816Z" fill="#202020"/>
</svg>
