<svg width="142" height="37" viewBox="0 0 142 37" fill="none" xmlns="http://www.w3.org/2000/svg">
<g id="Foodhub">
<path d="M19.2 0.967998V6.296H6.528L6.336 18.92L15.216 19.064L15.12 24.44L6.288 24.296L6.096 35.48L0.768 35.384L1.248 3.608V0.967998H19.2ZM31.2008 8.84C30.2408 8.872 29.3768 9.464 28.6088 10.616C27.8408 11.768 27.2168 13.24 26.7368 15.032C26.3208 16.696 26.0968 18.472 26.0648 20.36C26.0648 22.152 26.2728 23.8 26.6888 25.304C27.4568 27.896 28.6248 29.208 30.1928 29.24C30.5128 29.24 30.8328 29.144 31.1528 28.952C31.4728 28.76 31.7608 28.504 32.0168 28.184C32.3048 27.832 32.5608 27.416 32.7848 26.936C33.0408 26.424 33.2648 25.88 33.4568 25.304C33.6488 24.728 33.8248 24.104 33.9848 23.432C34.4008 21.704 34.6088 19.848 34.6088 17.864C34.6088 15.88 34.4008 14.12 33.9848 12.584C33.3128 10.024 32.3848 8.776 31.2008 8.84ZM21.5527 13.688C22.3208 10.776 23.5048 8.376 25.1048 6.488C26.7048 4.6 28.6408 3.592 30.9128 3.464C32.9928 3.368 34.7208 4.024 36.0968 5.432C37.5048 6.808 38.5288 8.728 39.1688 11.192C39.7128 13.176 39.9848 15.4 39.9848 17.864C39.9848 20.232 39.7128 22.504 39.1688 24.68C38.4648 27.688 37.3288 30.104 35.7608 31.928C34.1928 33.752 32.2888 34.632 30.0488 34.568C27.9048 34.504 26.1128 33.784 24.6728 32.408C23.2648 31 22.2248 29.128 21.5527 26.792C20.9768 24.872 20.7048 22.712 20.7368 20.312C20.7688 17.976 21.0408 15.768 21.5527 13.688ZM51.9664 8.84C51.0064 8.872 50.1424 9.464 49.3744 10.616C48.6064 11.768 47.9824 13.24 47.5024 15.032C47.0864 16.696 46.8624 18.472 46.8304 20.36C46.8304 22.152 47.0384 23.8 47.4544 25.304C48.2224 27.896 49.3904 29.208 50.9584 29.24C51.2784 29.24 51.5984 29.144 51.9184 28.952C52.2384 28.76 52.5264 28.504 52.7824 28.184C53.0704 27.832 53.3264 27.416 53.5504 26.936C53.8064 26.424 54.0304 25.88 54.2224 25.304C54.4144 24.728 54.5904 24.104 54.7504 23.432C55.1664 21.704 55.3744 19.848 55.3744 17.864C55.3744 15.88 55.1664 14.12 54.7504 12.584C54.0784 10.024 53.1504 8.776 51.9664 8.84ZM42.3184 13.688C43.0864 10.776 44.2704 8.376 45.8704 6.488C47.4704 4.6 49.4064 3.592 51.6784 3.464C53.7584 3.368 55.4864 4.024 56.8624 5.432C58.2704 6.808 59.2944 8.728 59.9344 11.192C60.4784 13.176 60.7504 15.4 60.7504 17.864C60.7504 20.232 60.4784 22.504 59.9344 24.68C59.2304 27.688 58.0944 30.104 56.5264 31.928C54.9584 33.752 53.0544 34.632 50.8144 34.568C48.6704 34.504 46.8784 33.784 45.4384 32.408C44.0304 31 42.9904 29.128 42.3184 26.792C41.7424 24.872 41.4704 22.712 41.5024 20.312C41.5344 17.976 41.8064 15.768 42.3184 13.688ZM67.644 8.552L67.836 28.904C69.148 27.944 70.412 26.232 71.628 23.768C72.684 21.56 73.324 19.32 73.548 17.048C73.772 14.744 73.516 12.872 72.78 11.432C71.884 9.704 70.172 8.744 67.644 8.552ZM62.556 34.328L62.508 32.168L62.316 5.96L62.268 3.512L64.716 3.272C70.956 2.664 75.228 4.568 77.532 8.984C78.748 11.352 79.196 14.216 78.876 17.576C78.588 20.456 77.772 23.304 76.428 26.12C75.02 29.032 73.26 31.32 71.148 32.984C69.036 34.616 66.876 35.208 64.668 34.76L62.556 34.328Z" fill="#FF7A00"/>
<path d="M93.9413 3.08L99.3173 2.984L99.8453 34.952L94.4693 35.048L94.3733 28.904L86.0693 28.76L85.8773 35.096L80.5493 34.952L81.4613 2.984L86.8372 3.128L86.2133 23.432L94.2773 23.576L93.9413 3.08ZM101.65 5.912L106.978 5.768C107.01 6.216 106.978 7.256 106.882 8.888C106.85 10.04 106.818 10.952 106.786 11.624C106.754 12.264 106.722 13.272 106.69 14.648C106.658 15.992 106.658 17.128 106.69 18.056C106.754 18.952 106.818 20.024 106.882 21.272C106.946 22.52 107.074 23.576 107.266 24.44C107.458 25.272 107.682 26.104 107.938 26.936C108.226 27.768 108.578 28.424 108.994 28.904C109.442 29.352 109.938 29.624 110.482 29.72C113.266 30.264 115.138 28.136 116.098 23.336C116.802 19.784 116.994 14.2 116.674 6.584C116.578 4.792 116.546 3.544 116.578 2.84L121.906 2.984C121.906 3.304 121.938 4.424 122.002 6.344C122.386 14.408 122.178 20.424 121.378 24.392C119.714 32.712 115.73 36.248 109.426 35C108.562 34.808 107.762 34.488 107.026 34.04C106.29 33.592 105.65 33 105.106 32.264C104.594 31.528 104.114 30.776 103.666 30.008C103.25 29.208 102.914 28.248 102.658 27.128C102.402 26.008 102.178 24.984 101.986 24.056C101.794 23.096 101.65 21.976 101.554 20.696C101.49 19.416 101.426 18.328 101.362 17.432C101.33 16.536 101.33 15.448 101.362 14.168C101.394 12.888 101.41 11.912 101.41 11.24C101.442 10.568 101.49 9.704 101.554 8.648C101.618 7.048 101.65 6.136 101.65 5.912ZM136.92 16.328C138.104 17.224 139.064 18.264 139.8 19.448C140.792 21.144 141.272 22.968 141.24 24.92C141.208 26.904 140.616 28.68 139.464 30.248C138.248 31.976 136.504 33.272 134.232 34.136C131.96 35 129.272 35.24 126.168 34.856L123.768 34.568V32.168L123.912 6.056V3.848L126.072 3.416C129.048 2.968 131.464 2.968 133.32 3.416C135.208 3.832 136.712 4.632 137.832 5.816C139.016 7.032 139.656 8.472 139.752 10.136C139.848 11.704 139.432 13.176 138.504 14.552C138.088 15.192 137.56 15.784 136.92 16.328ZM135.192 22.232C134.072 20.376 132.072 19.272 129.192 18.92L129.144 29.672C131.992 29.608 133.976 28.76 135.096 27.128C135.608 26.424 135.88 25.64 135.912 24.776C135.944 23.912 135.704 23.064 135.192 22.232ZM129.24 8.408L129.192 13.4C131.56 13.496 133.176 12.904 134.04 11.624C134.296 11.208 134.424 10.808 134.424 10.424C134.392 10.072 134.248 9.768 133.992 9.512C133.096 8.616 131.512 8.248 129.24 8.408Z" fill="#202020"/>
</g>
</svg>
