<svg width="65" height="52" class="truck" viewBox="0 0 65 52" fill="none" xmlns="http://www.w3.org/2000/svg">
  <path id="Vector"
    d="M63.375 35.75H61.75V24.7711C61.75 23.4812 61.232 22.2422 60.318 21.3281L50.1719 11.182C49.2578 10.268 48.0187 9.75 46.7289 9.75H42.25V4.875C42.25 2.18359 40.0664 0 37.375 0H11.375C8.68359 0 6.5 2.18359 6.5 4.875V9.75H0.8125C0.365625 9.75 0 10.1156 0 10.5625V12.1875C0 12.6344 0.365625 13 0.8125 13H28.4375C28.8844 13 29.25 13.3656 29.25 13.8125V15.4375C29.25 15.8844 28.8844 16.25 28.4375 16.25H4.0625C3.61562 16.25 3.25 16.6156 3.25 17.0625V18.6875C3.25 19.1344 3.61562 19.5 4.0625 19.5H25.1875C25.6344 19.5 26 19.8656 26 20.3125V21.9375C26 22.3844 25.6344 22.75 25.1875 22.75H0.8125C0.365625 22.75 0 23.1156 0 23.5625V25.1875C0 25.6344 0.365625 26 0.8125 26H21.9375C22.3844 26 22.75 26.3656 22.75 26.8125V28.4375C22.75 28.8844 22.3844 29.25 21.9375 29.25H6.5V42.25C6.5 47.6328 10.8672 52 16.25 52C21.6328 52 26 47.6328 26 42.25H39C39 47.6328 43.3672 52 48.75 52C54.1328 52 58.5 47.6328 58.5 42.25H63.375C64.2688 42.25 65 41.5187 65 40.625V37.375C65 36.4813 64.2688 35.75 63.375 35.75ZM16.25 47.125C13.5586 47.125 11.375 44.9414 11.375 42.25C11.375 39.5586 13.5586 37.375 16.25 37.375C18.9414 37.375 21.125 39.5586 21.125 42.25C21.125 44.9414 18.9414 47.125 16.25 47.125ZM48.75 47.125C46.0586 47.125 43.875 44.9414 43.875 42.25C43.875 39.5586 46.0586 37.375 48.75 37.375C51.4414 37.375 53.625 39.5586 53.625 42.25C53.625 44.9414 51.4414 47.125 48.75 47.125ZM56.875 26H42.25V14.625H46.7289L56.875 24.7711V26Z"
    fill="#FF7A00" />
</svg>